<!DOCTYPE svg PUBLIC "-//W3C//DTD SVG 1.1//EN" "http://www.w3.org/Graphics/SVG/1.1/DTD/svg11.dtd">
<!-- Uploaded to: SVG Repo, www.svgrepo.com, Transformed by: SVG Repo Mixer Tools -->
<svg width="147px" height="147px" viewBox="0 0 64.00 64.00" xmlns="http://www.w3.org/2000/svg" xmlns:xlink="http://www.w3.org/1999/xlink" aria-hidden="true" role="img" class="iconify iconify--emojione-monotone" preserveAspectRatio="xMidYMid meet" fill="#ff0000" stroke="#ff0000" stroke-width="0.00064" transform="matrix(1, 0, 0, 1, 0, 0)rotate(0)">
<g id="SVGRepo_bgCarrier" stroke-width="0"/>
<g id="SVGRepo_tracerCarrier" stroke-linecap="round" stroke-linejoin="round"/>
<g id="SVGRepo_iconCarrier">
<path d="M16.3 22.2h3.933l-.786-4.72l4.72.787v-3.934l-4.72.786l.786-4.719H16.3l.786 4.719l-4.719-.786v3.934l4.719-.787z" fill="#ff0000"/>
<path d="M39.834 18.267l4.719-.787l-.786 4.72H47.7l-.786-4.72l4.719.787v-3.934l-4.719.786l.786-4.719h-3.933l.786 4.719l-4.719-.786z" fill="#ff0000"/>
<path d="M24.167 45.733l-4.816.803c.25-1.888.883-4.736.883-4.736H16.3s.633 2.849.883 4.736l-4.816-.803v3.934l4.816-.803c-.251 1.888-.883 4.736-.883 4.736h3.934s-.632-2.848-.883-4.735l4.816.803v-3.935" fill="#ff0000"/>
<path d="M47.7 41.8h-3.933l.786 4.72l-4.719-.787v3.934l4.719-.786l-.786 4.719H47.7l-.786-4.719l4.719.786v-3.934l-4.719.787z" fill="#ff0000"/>
<path d="M32 2C15.432 2 2 15.432 2 32s13.432 30 30 30s30-13.432 30-30S48.568 2 32 2zm27.369 24.1H37.9V4.631C48.611 6.938 57.062 15.389 59.369 26.1zM26.1 4.631V26.1H4.631C6.938 15.389 15.389 6.938 26.1 4.631zM4.631 37.9H26.1v21.469C15.389 57.063 6.938 48.611 4.631 37.9zM37.9 59.369V37.9h21.469C57.062 48.611 48.611 57.063 37.9 59.369z" fill="#ff0000"/>
</g>
</svg>