<?xml version="1.0" encoding="UTF-8"?><svg id="Layer_2" xmlns="http://www.w3.org/2000/svg" viewBox="0 0 175.8 175.8"><g id="Layer_2-2"><path d="M2.02,87.9c0,47.43,38.45,85.88,85.88,85.88s85.88-38.45,85.88-85.88S135.33,2.02,87.9,2.02,2.02,40.47,2.02,87.9Z" style="fill:#fff;"/><path d="M33.98,51.54c0,.62-.27,4.19-.27,4.19,1.15-.37,5.92-.84,10.59-1.03-.33,4.16-1.26,8.45-1.26,8.45.91-.21,4.95-.26,4.95-.26.78,0,5.31.21,5.31.21-.46-.91-1.07-4.68-1.32-8.38,5.09.26,10.69.86,10.69.86,0,0-.32-2.71-.32-4.05s.22-3.83.22-3.83c0,0-5.34.61-10.56.88.33-4,1.08-8.36,1.08-8.36,0,0-3.44.26-5.13.26s-4.86-.18-4.86-.18c0,0,.77,4.2,1.11,8.33-5.24-.27-10.59-.99-10.59-.99.29.72.34,3.9.34,3.9h.02Z" style="fill:red;"/><path d="M113.74,51.54c0,.62-.27,4.19-.27,4.19,1.15-.37,5.91-.84,10.59-1.03-.33,4.16-1.26,8.45-1.26,8.45.91-.21,4.95-.26,4.95-.26.78,0,5.31.21,5.31.21-.46-.91-1.07-4.68-1.32-8.38,5.09.26,10.69.86,10.69.86,0,0-.32-2.71-.32-4.05s.23-3.83.23-3.83c0,0-5.34.61-10.56.88.33-4,1.08-8.36,1.08-8.36,0,0-3.44.26-5.13.26s-4.86-.18-4.86-.18c0,0,.77,4.2,1.12,8.33-5.24-.27-10.59-.99-10.59-.99.29.72.34,3.9.34,3.9Z" style="fill:red;"/><path d="M62.36,124.38c0-1.34.23-3.83.23-3.83,0,0-5.34.61-10.56.89.33-4,1.08-8.36,1.08-8.36,0,0-3.44.25-5.13.25s-4.86-.18-4.86-.18c0,0,.77,4.2,1.12,8.33-5.24-.27-10.59-.99-10.59-.99.27.72.32,3.9.32,3.9,0,.62-.27,4.19-.27,4.19,1.15-.37,5.92-.84,10.59-1.03-.33,4.16-1.26,8.45-1.26,8.45.91-.21,4.95-.26,4.95-.26.78,0,5.31.21,5.31.21-.46-.91-1.07-4.69-1.32-8.38,5.09.26,10.69.87,10.69.87,0,0-.29-2.71-.29-4.05h0Z" style="fill:red;"/><path d="M142.13,124.38c0-1.34.22-3.83.22-3.83,0,0-5.34.61-10.56.89.33-4,1.08-8.36,1.08-8.36,0,0-3.44.25-5.13.25s-4.86-.18-4.86-.18c0,0,.77,4.2,1.12,8.33-5.24-.27-10.59-.99-10.59-.99.27.72.32,3.9.32,3.9,0,.62-.27,4.19-.27,4.19,1.15-.37,5.92-.84,10.59-1.03-.33,4.16-1.26,8.45-1.26,8.45.91-.21,4.95-.26,4.95-.26.78,0,5.31.21,5.31.21-.46-.91-1.07-4.69-1.32-8.38,5.09.26,10.69.87,10.69.87,0,0-.29-2.71-.29-4.05h0Z" style="fill:red;"/><path d="M173.75,80.31v-.07h-76.13V2.04h-.03v-.02h-19.3v78.23H2.02v15.17h.07v.17h76.19v78.18h19.3v-.15h.03v-78.03h76.16v-15.28h-.04.02Z" style="fill:red;"/><path d="M87.9,175.79C39.43,175.79,0,136.36,0,87.9S39.43,0,87.9,0s87.9,39.43,87.9,87.9-39.43,87.9-87.9,87.9h0ZM87.9,3.98C41.62,3.98,3.98,41.62,3.98,87.9s37.65,83.92,83.92,83.92,83.92-37.65,83.92-83.92S134.17,3.98,87.9,3.98Z" style="fill:#dab983;"/></g></svg>