<?xml version="1.0" encoding="UTF-8"?><svg id="Layer_2" xmlns="http://www.w3.org/2000/svg" viewBox="0 0 859.59 175.79"><g id="_Слой_1"><path d="M241.79,73.22c-4.1,0-7.75-.89-10.96-2.67-3.17-1.82-5.66-4.29-7.48-7.42-1.82-3.17-2.73-6.79-2.73-10.85s.91-7.77,2.73-10.9c1.82-3.17,4.31-5.64,7.48-7.42,3.21-1.82,6.86-2.73,10.96-2.73,2.36,0,4.56.37,6.61,1.1,2.09.74,3.96,1.74,5.63,3.02,1.66,1.24,3.02,2.69,4.06,4.35l-5.45,3.48c-.73-1.12-1.68-2.13-2.84-3.02-1.16-.89-2.44-1.57-3.83-2.03-1.35-.5-2.74-.75-4.18-.75-2.78,0-5.26.64-7.42,1.91-2.13,1.28-3.81,3.04-5.05,5.28-1.24,2.2-1.86,4.78-1.86,7.71s.6,5.41,1.8,7.66c1.24,2.24,2.94,4,5.1,5.28,2.2,1.28,4.74,1.91,7.6,1.91,2.24,0,4.25-.46,6.03-1.39,1.78-.93,3.17-2.22,4.18-3.89,1.04-1.66,1.57-3.58,1.57-5.74l6.44-.81c0,3.67-.79,6.86-2.38,9.57-1.55,2.67-3.71,4.74-6.5,6.21-2.74,1.43-5.92,2.15-9.51,2.15ZM244,56.63v-5.45h16.18v4.52l-3.6.93h-12.59Z" style="fill:#dab983;"/><path d="M266.68,72.52V31.92h25v6.15h-18.27v10.79h16.12v6.03h-16.12v11.48h18.44v6.15h-25.17Z" style="fill:#dab983;"/><path d="M318.92,73.22c-4.02,0-7.58-.89-10.67-2.67-3.09-1.78-5.53-4.25-7.31-7.42-1.74-3.17-2.61-6.8-2.61-10.9s.87-7.71,2.61-10.85c1.78-3.17,4.2-5.64,7.25-7.42,3.05-1.82,6.57-2.73,10.56-2.73s7.56.91,10.61,2.73c3.09,1.78,5.49,4.25,7.19,7.42,1.74,3.13,2.61,6.75,2.61,10.85s-.87,7.73-2.61,10.9c-1.7,3.17-4.08,5.64-7.13,7.42-3.02,1.78-6.52,2.67-10.5,2.67ZM318.92,67.07c2.63,0,4.95-.64,6.96-1.91,2.01-1.28,3.58-3.02,4.7-5.22,1.16-2.24,1.74-4.81,1.74-7.71s-.58-5.41-1.74-7.66c-1.16-2.24-2.77-3.98-4.81-5.22-2.01-1.28-4.35-1.91-7.02-1.91s-4.97.64-7.02,1.91c-2.01,1.24-3.61,2.98-4.81,5.22-1.16,2.2-1.74,4.76-1.74,7.66s.58,5.47,1.74,7.71c1.2,2.2,2.82,3.94,4.87,5.22,2.09,1.28,4.47,1.91,7.13,1.91Z" style="fill:#dab983;"/><path d="M346.31,72.52V31.92h14.33c2.78,0,5.24.54,7.37,1.62,2.13,1.08,3.79,2.59,4.99,4.52,1.2,1.89,1.8,4.1,1.8,6.61s-.64,4.74-1.91,6.67c-1.24,1.93-2.96,3.46-5.16,4.58-2.2,1.08-4.7,1.62-7.48,1.62h-7.19v14.96h-6.73ZM368.82,72.52l-9.51-16.47,5.22-3.6,11.89,20.07h-7.6ZM353.04,51.35h7.89c1.32,0,2.48-.29,3.48-.87,1.04-.58,1.88-1.37,2.49-2.38.66-1.01.99-2.15.99-3.42,0-1.93-.7-3.52-2.09-4.76-1.39-1.24-3.19-1.86-5.39-1.86h-7.37v13.28Z" style="fill:#dab983;"/><path d="M401.86,73.22c-4.1,0-7.75-.89-10.96-2.67-3.17-1.82-5.66-4.29-7.48-7.42-1.82-3.17-2.73-6.79-2.73-10.85s.91-7.77,2.73-10.9c1.82-3.17,4.31-5.64,7.48-7.42,3.21-1.82,6.86-2.73,10.96-2.73,2.36,0,4.56.37,6.61,1.1,2.09.74,3.96,1.74,5.63,3.02,1.66,1.24,3.02,2.69,4.06,4.35l-5.45,3.48c-.74-1.12-1.68-2.13-2.84-3.02-1.16-.89-2.44-1.57-3.83-2.03-1.35-.5-2.74-.75-4.18-.75-2.78,0-5.26.64-7.42,1.91-2.13,1.28-3.81,3.04-5.05,5.28-1.24,2.2-1.86,4.78-1.86,7.71s.6,5.41,1.8,7.66c1.24,2.24,2.94,4,5.1,5.28,2.2,1.28,4.74,1.91,7.6,1.91,2.24,0,4.25-.46,6.03-1.39,1.78-.93,3.17-2.22,4.18-3.89,1.04-1.66,1.57-3.58,1.57-5.74l6.44-.81c0,3.67-.79,6.86-2.38,9.57-1.55,2.67-3.71,4.74-6.5,6.21-2.75,1.43-5.92,2.15-9.51,2.15ZM404.06,56.63v-5.45h16.18v4.52l-3.6.93h-12.59Z" style="fill:#dab983;"/><path d="M426.12,72.52V31.92h6.73v40.6h-6.73Z" style="fill:#dab983;"/><path d="M470.62,72.52l-15.83-40.6h6.73l16.24,40.6h-7.13ZM438.19,72.52l16.18-40.6h6.79l-15.83,40.6h-7.13ZM445.79,62.55v-5.97h24.3v5.97h-24.3Z" style="fill:#dab983;"/><path d="M497.03,72.52V31.92h13.4c2.78,0,5.18.43,7.19,1.28,2.05.85,3.63,2.13,4.76,3.83,1.12,1.66,1.68,3.75,1.68,6.26,0,1.74-.42,3.31-1.28,4.7-.81,1.39-1.97,2.55-3.48,3.48,1.97.97,3.48,2.26,4.52,3.89s1.57,3.56,1.57,5.8c0,2.4-.54,4.45-1.62,6.15-1.08,1.7-2.61,3-4.58,3.89-1.97.89-4.31,1.33-7.02,1.33h-15.14ZM503.64,66.49h8c2.13,0,3.81-.52,5.05-1.57s1.86-2.46,1.86-4.23c0-1.93-.7-3.44-2.09-4.52-1.35-1.08-3.27-1.62-5.74-1.62h-7.08v11.95ZM503.64,48.98h7.37c1.93,0,3.44-.5,4.52-1.51,1.12-1.04,1.68-2.47,1.68-4.29s-.64-3.27-1.91-4.23c-1.24-1.01-2.98-1.51-5.22-1.51h-6.44v11.54Z" style="fill:#dab983;"/><path d="M548.03,73.34c-3.21,0-6.03-.64-8.47-1.91-2.4-1.32-4.27-3.15-5.63-5.51-1.31-2.36-1.97-5.1-1.97-8.24v-25.75h6.73v25.75c0,1.89.39,3.56,1.16,4.99.81,1.39,1.93,2.49,3.36,3.31,1.43.77,3.07,1.16,4.93,1.16s3.56-.39,4.99-1.16c1.47-.81,2.59-1.91,3.36-3.31.77-1.43,1.16-3.09,1.16-4.99v-25.75h6.73v25.75c0,3.13-.68,5.88-2.03,8.24-1.32,2.36-3.21,4.2-5.68,5.51-2.44,1.28-5.32,1.91-8.64,1.91Z" style="fill:#dab983;"/><path d="M586.78,73.22c-2.13,0-4.08-.25-5.86-.75-1.74-.5-3.29-1.2-4.64-2.09-1.31-.89-2.42-1.88-3.31-2.96-.85-1.12-1.45-2.28-1.8-3.48l6.61-2.03c.5,1.43,1.49,2.69,2.96,3.77s3.29,1.64,5.45,1.68c2.51,0,4.51-.52,5.97-1.57s2.2-2.42,2.2-4.12c0-1.55-.62-2.8-1.86-3.77-1.24-1.01-2.9-1.78-4.99-2.32l-4.99-1.28c-1.89-.5-3.61-1.24-5.16-2.2-1.51-.97-2.71-2.18-3.6-3.65-.85-1.47-1.28-3.21-1.28-5.22,0-3.79,1.24-6.73,3.71-8.82,2.48-2.13,6.01-3.19,10.61-3.19,2.59,0,4.85.41,6.79,1.22,1.97.77,3.6,1.86,4.87,3.25,1.28,1.35,2.22,2.9,2.84,4.64l-6.5,2.09c-.58-1.55-1.59-2.82-3.02-3.83-1.43-1.01-3.21-1.51-5.34-1.51s-3.94.52-5.22,1.57c-1.24,1.04-1.86,2.49-1.86,4.35,0,1.51.48,2.69,1.45,3.54,1.01.81,2.36,1.43,4.06,1.86l4.99,1.22c3.63.89,6.46,2.42,8.47,4.58,2.01,2.17,3.02,4.56,3.02,7.19,0,2.32-.56,4.37-1.68,6.15-1.12,1.78-2.78,3.17-4.99,4.18-2.16,1.01-4.81,1.51-7.95,1.51Z" style="fill:#dab983;"/><path d="M608.84,72.52V31.92h6.73v40.6h-6.73Z" style="fill:#dab983;"/><path d="M625.21,72.52V31.92h6.96l21.58,29.35v-29.35h6.73v40.6h-6.73l-21.81-29.7v29.7h-6.73Z" style="fill:#dab983;"/><path d="M670.12,72.52V31.92h25v6.15h-18.27v10.79h16.12v6.03h-16.12v11.48h18.44v6.15h-25.17Z" style="fill:#dab983;"/><path d="M717.67,73.22c-2.13,0-4.08-.25-5.86-.75-1.74-.5-3.29-1.2-4.64-2.09-1.32-.89-2.42-1.88-3.31-2.96-.85-1.12-1.45-2.28-1.8-3.48l6.61-2.03c.5,1.43,1.49,2.69,2.96,3.77,1.47,1.08,3.29,1.64,5.45,1.68,2.51,0,4.51-.52,5.97-1.57,1.47-1.04,2.2-2.42,2.2-4.12,0-1.55-.62-2.8-1.86-3.77-1.24-1.01-2.9-1.78-4.99-2.32l-4.99-1.28c-1.89-.5-3.61-1.24-5.16-2.2-1.51-.97-2.71-2.18-3.6-3.65-.85-1.47-1.28-3.21-1.28-5.22,0-3.79,1.24-6.73,3.71-8.82,2.47-2.13,6.01-3.19,10.61-3.19,2.59,0,4.85.41,6.79,1.22,1.97.77,3.6,1.86,4.87,3.25,1.28,1.35,2.22,2.9,2.84,4.64l-6.5,2.09c-.58-1.55-1.59-2.82-3.02-3.83-1.43-1.01-3.21-1.51-5.34-1.51s-3.94.52-5.22,1.57c-1.24,1.04-1.86,2.49-1.86,4.35,0,1.51.48,2.69,1.45,3.54,1.01.81,2.36,1.43,4.06,1.86l4.99,1.22c3.64.89,6.46,2.42,8.47,4.58,2.01,2.17,3.02,4.56,3.02,7.19,0,2.32-.56,4.37-1.68,6.15-1.12,1.78-2.78,3.17-4.99,4.18-2.16,1.01-4.81,1.51-7.95,1.51Z" style="fill:#dab983;"/><path d="M753.07,73.22c-2.13,0-4.08-.25-5.86-.75-1.74-.5-3.29-1.2-4.64-2.09-1.31-.89-2.42-1.88-3.31-2.96-.85-1.12-1.45-2.28-1.8-3.48l6.61-2.03c.5,1.43,1.49,2.69,2.96,3.77,1.47,1.08,3.29,1.64,5.45,1.68,2.51,0,4.51-.52,5.97-1.57s2.2-2.42,2.2-4.12c0-1.55-.62-2.8-1.86-3.77-1.24-1.01-2.9-1.78-4.99-2.32l-4.99-1.28c-1.89-.5-3.61-1.24-5.16-2.2-1.51-.97-2.71-2.18-3.6-3.65-.85-1.47-1.28-3.21-1.28-5.22,0-3.79,1.24-6.73,3.71-8.82,2.48-2.13,6.01-3.19,10.61-3.19,2.59,0,4.85.41,6.79,1.22,1.97.77,3.6,1.86,4.87,3.25,1.28,1.35,2.22,2.9,2.84,4.64l-6.5,2.09c-.58-1.55-1.59-2.82-3.02-3.83-1.43-1.01-3.21-1.51-5.34-1.51s-3.94.52-5.22,1.57c-1.24,1.04-1.86,2.49-1.86,4.35,0,1.51.48,2.69,1.45,3.54,1.01.81,2.36,1.43,4.06,1.86l4.99,1.22c3.63.89,6.46,2.42,8.47,4.58s3.02,4.56,3.02,7.19c0,2.32-.56,4.37-1.68,6.15-1.12,1.78-2.78,3.17-4.99,4.18-2.16,1.01-4.81,1.51-7.95,1.51Z" style="fill:#dab983;"/><path d="M251.31,142.54l-15.83-40.6h6.73l16.24,40.6h-7.13ZM218.89,142.54l16.18-40.6h6.79l-15.83,40.6h-7.13ZM226.48,132.57v-5.97h24.3v5.97h-24.3Z" style="fill:#dab983;"/><path d="M263.73,142.54v-40.6h6.96l21.57,29.35v-29.35h6.73v40.6h-6.73l-21.81-29.7v29.7h-6.73Z" style="fill:#dab983;"/><path d="M308.65,142.54v-40.6h12.76c3.98,0,7.5.87,10.56,2.61,3.09,1.7,5.51,4.08,7.25,7.13,1.78,3.05,2.67,6.57,2.67,10.56s-.89,7.44-2.67,10.5c-1.74,3.05-4.16,5.45-7.25,7.19-3.06,1.74-6.57,2.61-10.56,2.61h-12.76ZM315.37,136.28h6.03c1.89,0,3.67-.35,5.34-1.04,1.66-.74,3.11-1.74,4.35-3.02,1.24-1.28,2.2-2.76,2.9-4.47.7-1.7,1.04-3.54,1.04-5.51s-.35-3.81-1.04-5.51c-.7-1.7-1.66-3.19-2.9-4.47-1.24-1.28-2.69-2.26-4.35-2.96-1.66-.73-3.44-1.1-5.34-1.1h-6.03v28.07Z" style="fill:#dab983;"/><path d="M362.96,142.54v-40.6h14.33c2.78,0,5.24.54,7.37,1.62,2.13,1.08,3.79,2.59,4.99,4.52,1.2,1.9,1.8,4.1,1.8,6.61s-.64,4.74-1.91,6.67c-1.24,1.93-2.96,3.46-5.16,4.58-2.2,1.08-4.7,1.62-7.48,1.62h-7.19v14.96h-6.73ZM385.47,142.54l-9.51-16.47,5.22-3.6,11.89,20.07h-7.6ZM369.69,121.37h7.89c1.31,0,2.47-.29,3.48-.87,1.04-.58,1.88-1.37,2.49-2.38.66-1.01.99-2.15.99-3.42,0-1.93-.7-3.52-2.09-4.76-1.39-1.24-3.19-1.86-5.39-1.86h-7.37v13.28Z" style="fill:#dab983;"/><path d="M399.89,142.54v-40.6h25v6.15h-18.27v10.79h16.12v6.03h-16.12v11.48h18.44v6.15h-25.17Z" style="fill:#dab983;"/><path d="M447.44,143.24c-2.13,0-4.08-.25-5.86-.75-1.74-.5-3.29-1.2-4.64-2.09-1.32-.89-2.42-1.88-3.31-2.96-.85-1.12-1.45-2.28-1.8-3.48l6.61-2.03c.5,1.43,1.49,2.69,2.96,3.77,1.47,1.08,3.29,1.64,5.45,1.68,2.51,0,4.5-.52,5.97-1.57,1.47-1.04,2.2-2.42,2.2-4.12,0-1.55-.62-2.8-1.86-3.77-1.24-1.01-2.9-1.78-4.99-2.32l-4.99-1.28c-1.89-.5-3.62-1.24-5.16-2.2-1.51-.97-2.71-2.18-3.6-3.65-.85-1.47-1.28-3.21-1.28-5.22,0-3.79,1.24-6.73,3.71-8.82,2.47-2.13,6.01-3.19,10.61-3.19,2.59,0,4.85.41,6.79,1.22,1.97.77,3.6,1.86,4.87,3.25,1.28,1.35,2.22,2.9,2.84,4.64l-6.49,2.09c-.58-1.55-1.59-2.82-3.02-3.83-1.43-1.01-3.21-1.51-5.34-1.51s-3.94.52-5.22,1.57c-1.24,1.04-1.86,2.49-1.86,4.35,0,1.51.48,2.69,1.45,3.54,1,.81,2.36,1.43,4.06,1.86l4.99,1.22c3.63.89,6.46,2.42,8.47,4.58,2.01,2.16,3.02,4.56,3.02,7.19,0,2.32-.56,4.37-1.68,6.15-1.12,1.78-2.78,3.17-4.99,4.18-2.17,1.01-4.81,1.51-7.95,1.51Z" style="fill:#dab983;"/><path d="M469.5,142.54v-40.6h6.73v40.6h-6.73Z" style="fill:#dab983;"/><path d="M485.87,142.54v-40.6h12.76c3.98,0,7.5.87,10.56,2.61,3.09,1.7,5.51,4.08,7.25,7.13,1.78,3.05,2.67,6.57,2.67,10.56s-.89,7.44-2.67,10.5c-1.74,3.05-4.16,5.45-7.25,7.19-3.05,1.74-6.57,2.61-10.56,2.61h-12.76ZM492.6,136.28h6.03c1.9,0,3.67-.35,5.34-1.04,1.66-.74,3.11-1.74,4.35-3.02,1.24-1.28,2.2-2.76,2.9-4.47.7-1.7,1.04-3.54,1.04-5.51s-.35-3.81-1.04-5.51c-.7-1.7-1.66-3.19-2.9-4.47-1.24-1.28-2.69-2.26-4.35-2.96-1.66-.73-3.44-1.1-5.34-1.1h-6.03v28.07Z" style="fill:#dab983;"/><path d="M526.2,142.54v-40.6h25v6.15h-18.27v10.79h16.12v6.03h-16.12v11.48h18.44v6.15h-25.17Z" style="fill:#dab983;"/><path d="M560.41,142.54v-40.6h6.96l21.58,29.35v-29.35h6.73v40.6h-6.73l-21.81-29.7v29.7h-6.73Z" style="fill:#dab983;"/><path d="M613.74,142.54v-34.45h-12.47v-6.15h31.67v6.15h-12.47v34.45h-6.73Z" style="fill:#dab983;"/><path d="M638.52,142.54v-40.6h6.73v40.6h-6.73Z" style="fill:#dab983;"/><path d="M683.01,142.54l-15.83-40.6h6.73l16.24,40.6h-7.13ZM650.59,142.54l16.18-40.6h6.79l-15.83,40.6h-7.13ZM658.19,132.57v-5.97h24.3v5.97h-24.3Z" style="fill:#dab983;"/><path d="M695.44,142.54v-40.6h6.73v34.45h18.39v6.15h-25.11Z" style="fill:#dab983;"/><path d="M740.18,142.54v-40.6h6.73v34.45h18.39v6.15h-25.11Z" style="fill:#dab983;"/><path d="M799.07,142.54l-15.83-40.6h6.73l16.24,40.6h-7.13ZM766.65,142.54l16.18-40.6h6.79l-15.83,40.6h-7.13ZM774.25,132.57v-5.97h24.3v5.97h-24.3Z" style="fill:#dab983;"/><path d="M840.8,142.54l11.95-40.6h6.84l-12.3,40.6h-6.5ZM816.21,142.54l-12.12-40.6h6.79l11.89,40.6h-6.55ZM817.08,142.54l11.43-40.6h6.21l-11.37,40.6h-6.26ZM840.16,142.54l-11.19-40.6h6.2l11.54,40.6h-6.55Z" style="fill:#dab983;"/><path d="M2.02,87.9c0,47.43,38.45,85.88,85.88,85.88s85.88-38.45,85.88-85.88S135.33,2.02,87.9,2.02,2.02,40.47,2.02,87.9Z" style="fill:#fff;"/><path d="M33.98,51.54c0,.62-.27,4.19-.27,4.19,1.15-.37,5.92-.84,10.59-1.03-.33,4.16-1.26,8.45-1.26,8.45.91-.21,4.95-.26,4.95-.26.78,0,5.31.21,5.31.21-.46-.91-1.07-4.68-1.32-8.38,5.09.26,10.69.86,10.69.86,0,0-.32-2.71-.32-4.05s.22-3.83.22-3.83c0,0-5.34.61-10.56.88.33-4,1.08-8.36,1.08-8.36,0,0-3.44.26-5.13.26s-4.86-.18-4.86-.18c0,0,.77,4.2,1.11,8.33-5.24-.27-10.59-.99-10.59-.99.29.72.34,3.9.34,3.9Z" style="fill:red;"/><path d="M113.74,51.54c0,.62-.27,4.19-.27,4.19,1.15-.37,5.91-.84,10.59-1.03-.33,4.16-1.26,8.45-1.26,8.45.91-.21,4.95-.26,4.95-.26.78,0,5.31.21,5.31.21-.46-.91-1.07-4.68-1.32-8.38,5.09.26,10.69.86,10.69.86,0,0-.32-2.71-.32-4.05s.23-3.83.23-3.83c0,0-5.34.61-10.56.88.33-4,1.08-8.36,1.08-8.36,0,0-3.44.26-5.13.26s-4.86-.18-4.86-.18c0,0,.77,4.2,1.12,8.33-5.24-.27-10.59-.99-10.59-.99.29.72.34,3.9.34,3.9Z" style="fill:red;"/><path d="M62.36,124.38c0-1.34.23-3.83.23-3.83,0,0-5.34.61-10.56.89.33-4,1.08-8.36,1.08-8.36,0,0-3.44.25-5.13.25s-4.86-.18-4.86-.18c0,0,.77,4.2,1.12,8.33-5.24-.27-10.59-.99-10.59-.99.27.72.32,3.9.32,3.9,0,.62-.27,4.19-.27,4.19,1.15-.37,5.92-.84,10.59-1.03-.33,4.16-1.26,8.45-1.26,8.45.91-.21,4.95-.26,4.95-.26.78,0,5.31.21,5.31.21-.46-.91-1.07-4.69-1.32-8.38,5.09.26,10.69.87,10.69.87,0,0-.29-2.71-.29-4.05Z" style="fill:red;"/><path d="M142.13,124.38c0-1.34.22-3.83.22-3.83,0,0-5.34.61-10.56.89.33-4,1.08-8.36,1.08-8.36,0,0-3.44.25-5.13.25s-4.86-.18-4.86-.18c0,0,.77,4.2,1.12,8.33-5.24-.27-10.59-.99-10.59-.99.27.72.32,3.9.32,3.9,0,.62-.27,4.19-.27,4.19,1.15-.37,5.92-.84,10.59-1.03-.33,4.16-1.26,8.45-1.26,8.45.91-.21,4.95-.26,4.95-.26.78,0,5.31.21,5.31.21-.46-.91-1.07-4.69-1.32-8.38,5.09.26,10.69.87,10.69.87,0,0-.29-2.71-.29-4.05Z" style="fill:red;"/><path d="M173.75,80.31v-.07h-76.13V2.04h-.03v-.02h-19.3v78.23H2.02v15.17h.07v.17h76.19v78.18h19.3v-.15h.03v-78.03h76.16v-15.28h-.04Z" style="fill:red;"/><path d="M87.9,175.79C39.43,175.79,0,136.36,0,87.9S39.43,0,87.9,0s87.9,39.43,87.9,87.9-39.43,87.9-87.9,87.9ZM87.9,3.98C41.62,3.98,3.98,41.62,3.98,87.9s37.65,83.92,83.92,83.92,83.92-37.65,83.92-83.92S134.17,3.98,87.9,3.98Z" style="fill:#dab983;"/></g></svg>